<svg viewBox="0 0 320 200" stroke="currentColor" stroke-width="2" stroke-linecap="round" stroke-linejoin="round" fill="none" role="img" aria-label="H-bridge circuit with motor terminals shorted for physical damping">
  <rect x="35" y="18" width="105" height="100" rx="10" opacity="0.55"/>
  <circle cx="55" cy="47" r="3" fill="var(--teal)" stroke="none"/><path d="M55 47 L77 47" stroke="var(--teal)" stroke-width="3"/><circle cx="77" cy="47" r="3" fill="var(--teal)" stroke="none"/>
  <circle cx="105" cy="47" r="3" fill="currentColor" stroke="none"/><path d="M105 47 L127 29" stroke="currentColor"/><circle cx="127" cy="47" r="3" fill="currentColor" stroke="none"/>
  <circle cx="55" cy="97" r="3" fill="currentColor" stroke="none"/><path d="M55 97 L77 79" stroke="currentColor"/><circle cx="77" cy="97" r="3" fill="currentColor" stroke="none"/>
  <circle cx="105" cy="97" r="3" fill="var(--teal)" stroke="none"/><path d="M105 97 L127 97" stroke="var(--teal)" stroke-width="3"/><circle cx="127" cy="97" r="3" fill="var(--teal)" stroke="none"/>
  <text x="87" y="140" text-anchor="middle" font-size="11" style="fill:var(--muted)" stroke="none">H-bridge</text>
  <circle cx="225" cy="68" r="30"/>
  <text x="225" y="77" text-anchor="middle" font-size="22" style="fill:var(--ink)" stroke="none">M</text>
  <path d="M195 68 H172 M255 68 h22" />
  <path d="M172 68 C172 128 277 128 277 68" stroke="var(--teal)" stroke-dasharray="6 5"/>
  <path d="M270 74 l9 2 -6 7" stroke="var(--teal)"/>
  <text x="225" y="112" text-anchor="middle" font-size="11" style="fill:var(--muted)" stroke="none">DC motor</text>
  <text x="160" y="168" text-anchor="middle" font-size="12" style="fill:var(--teal)" stroke="none">terminals shorted → vibration soaked up as heat</text>
  <text x="160" y="188" text-anchor="middle" font-size="11" style="fill:var(--muted)" stroke="none">physical damping, no extra hardware</text>
</svg>
